<svg width="19" height="19" viewBox="0 0 19 19" fill="none" xmlns="http://www.w3.org/2000/svg">
<circle cx="9.5" cy="9.5" r="9.5" transform="rotate(-180 9.5 9.5)" fill="#4EB53D"/>
<path fill-rule="evenodd" clip-rule="evenodd" d="M12.259 9.63037L7.51582 13.5522C7.34546 13.6857 7.24683 13.871 7.24683 14.0786C7.24683 14.4864 7.65031 14.82 8.14346 14.82C8.39452 14.82 8.61868 14.7384 8.78008 14.605L14.1599 10.1567C14.3213 10.0233 14.4199 9.83795 14.4199 9.63037C14.4199 9.42278 14.3213 9.23744 14.1599 9.10399L8.78008 4.65574C8.61868 4.52229 8.39452 4.44073 8.14346 4.44073C7.65031 4.44073 7.24683 4.77435 7.24683 5.18211C7.24683 5.3897 7.34546 5.57504 7.50685 5.70849L12.259 9.63037Z" fill="white"/>
</svg>
